<mxfile host="app.diagrams.net" modified="2023-11-05T12:01:09.248Z" agent="Mozilla/5.0 (Windows NT 10.0; Win64; x64) AppleWebKit/537.36 (KHTML, like Gecko) Chrome/118.0.0.0 Safari/537.36" version="21.8.2" etag="oB2EuH3fn6T2-d4UWc8o" type="github">
  <diagram name="Page-1" id="ZOHSzgA0hrWUbmNNWdaD">
    <mxGraphModel>
      <root>
        <mxCell id="0" />
        <mxCell id="1" parent="0" />
      </root>
    </mxGraphModel>
  </diagram>
</mxfile>
